<svg width="36" height="36" viewBox="0 0 36 36" fill="none" xmlns="http://www.w3.org/2000/svg">
<path d="M35.4643 7.40537C34.2118 7.96037 32.8663 8.33537 31.4518 8.50487C32.9113 7.63156 34.0032 6.25707 34.5238 4.63787C33.1525 5.45236 31.6518 6.02566 30.0868 6.33287C29.0343 5.20917 27.6404 4.46436 26.1213 4.21408C24.6022 3.9638 23.0429 4.22206 21.6856 4.94875C20.3283 5.67544 19.2489 6.82991 18.615 8.23293C17.9811 9.63594 17.8281 11.209 18.1798 12.7079C15.4013 12.5684 12.6832 11.8462 10.2019 10.5882C7.7206 9.33026 5.53154 7.56461 3.77677 5.40587C3.17677 6.44087 2.83177 7.64087 2.83177 8.91887C2.8311 10.0694 3.11442 11.2022 3.65659 12.217C4.19876 13.2317 4.98302 14.0969 5.93977 14.7359C4.83019 14.7006 3.74508 14.4007 2.77477 13.8614V13.9514C2.77466 15.565 3.33282 17.1289 4.35455 18.3779C5.37627 19.6268 6.79863 20.4838 8.38027 20.8034C7.35095 21.0819 6.27178 21.123 5.22427 20.9234C5.67052 22.3118 6.53977 23.5259 7.71032 24.3958C8.88088 25.2656 10.2941 25.7476 11.7523 25.7744C9.27702 27.7175 6.2201 28.7715 3.07327 28.7669C2.51584 28.767 1.95889 28.7345 1.40527 28.6694C4.59949 30.7231 8.31778 31.8131 12.1153 31.8089C24.9703 31.8089 31.9978 21.1619 31.9978 11.9279C31.9978 11.6279 31.9903 11.3249 31.9768 11.0249C33.3437 10.0363 34.5236 8.81221 35.4613 7.40987L35.4643 7.40537V7.40537Z" fill="white"/>
</svg>
